<svg xmlns="http://www.w3.org/2000/svg" viewBox="0 0 240 920" role="img" aria-label="Kelana Jaya Line schematic">
<title>Kelana Jaya Line</title>
<rect width="240" height="920" fill="#111318"/>
<line x1="36.0" y1="28.0" x2="36.0" y2="892.0" stroke="#e31837" stroke-width="6" stroke-linecap="butt"/>
<g transform="translate(36.0,28.0)"><!-- Terminal cap marker. Pattern: RapidKL linear diagram convention (reference only). -->
<rect x="-4" y="-4" width="8" height="8" rx="1" fill="#ece8e1"/></g>
<text x="52.0" y="32.0" fill="#ece8e1" font-size="12" font-family="IBM Plex Sans,sans-serif" font-weight="600">Gombak</text>
<line x1="31.0" y1="52.0" x2="41.0" y2="52.0" stroke="#ece8e1" stroke-width="2"/>
<text x="52.0" y="56.0" fill="#9a958c" font-size="12" font-family="IBM Plex Sans,sans-serif" font-weight="400">T.Melati</text>
<line x1="31.0" y1="76.0" x2="41.0" y2="76.0" stroke="#ece8e1" stroke-width="2"/>
<text x="52.0" y="80.0" fill="#9a958c" font-size="12" font-family="IBM Plex Sans,sans-serif" font-weight="400">W.Maju</text>
<line x1="31.0" y1="100.0" x2="41.0" y2="100.0" stroke="#ece8e1" stroke-width="2"/>
<text x="52.0" y="104.0" fill="#9a958c" font-size="12" font-family="IBM Plex Sans,sans-serif" font-weight="400">S.Rampai</text>
<line x1="31.0" y1="124.0" x2="41.0" y2="124.0" stroke="#ece8e1" stroke-width="2"/>
<text x="52.0" y="128.0" fill="#9a958c" font-size="12" font-family="IBM Plex Sans,sans-serif" font-weight="400">Setiawangsa</text>
<line x1="31.0" y1="148.0" x2="41.0" y2="148.0" stroke="#ece8e1" stroke-width="2"/>
<text x="52.0" y="152.0" fill="#9a958c" font-size="12" font-family="IBM Plex Sans,sans-serif" font-weight="400">Jelatek</text>
<line x1="31.0" y1="172.0" x2="41.0" y2="172.0" stroke="#ece8e1" stroke-width="2"/>
<text x="52.0" y="176.0" fill="#9a958c" font-size="12" font-family="IBM Plex Sans,sans-serif" font-weight="400">D.Keramat</text>
<line x1="31.0" y1="196.0" x2="41.0" y2="196.0" stroke="#ece8e1" stroke-width="2"/>
<text x="52.0" y="200.0" fill="#9a958c" font-size="12" font-family="IBM Plex Sans,sans-serif" font-weight="400">Damai</text>
<g transform="translate(36.0,220.0)"><!-- Hollow interchange ring. Pattern: TfL line-diagram standard (reference only), original geometry. -->
<circle cx="0" cy="0" r="5" fill="none" stroke="#ece8e1" stroke-width="2"/>
<circle cx="0" cy="0" r="3" fill="#111318"/></g>
<text x="52.0" y="224.0" fill="#ece8e1" font-size="12" font-family="IBM Plex Sans,sans-serif" font-weight="600">Amp.Park</text>
<line x1="31.0" y1="244.0" x2="41.0" y2="244.0" stroke="#ece8e1" stroke-width="2"/>
<text x="52.0" y="248.0" fill="#9a958c" font-size="12" font-family="IBM Plex Sans,sans-serif" font-weight="400">KLCC</text>
<line x1="31.0" y1="268.0" x2="41.0" y2="268.0" stroke="#ece8e1" stroke-width="2"/>
<text x="52.0" y="272.0" fill="#9a958c" font-size="12" font-family="IBM Plex Sans,sans-serif" font-weight="400">K.Baru</text>
<g transform="translate(36.0,292.0)"><!-- Hollow interchange ring. Pattern: TfL line-diagram standard (reference only), original geometry. -->
<circle cx="0" cy="0" r="5" fill="none" stroke="#ece8e1" stroke-width="2"/>
<circle cx="0" cy="0" r="3" fill="#111318"/></g>
<text x="52.0" y="296.0" fill="#ece8e1" font-size="12" font-family="IBM Plex Sans,sans-serif" font-weight="600">D.Wangi</text>
<g transform="translate(36.0,316.0)"><!-- Hollow interchange ring. Pattern: TfL line-diagram standard (reference only), original geometry. -->
<circle cx="0" cy="0" r="5" fill="none" stroke="#ece8e1" stroke-width="2"/>
<circle cx="0" cy="0" r="3" fill="#111318"/></g>
<text x="52.0" y="320.0" fill="#ece8e1" font-size="12" font-family="IBM Plex Sans,sans-serif" font-weight="600">M.Jamek</text>
<g transform="translate(36.0,340.0)"><!-- Hollow interchange ring. Pattern: TfL line-diagram standard (reference only), original geometry. -->
<circle cx="0" cy="0" r="5" fill="none" stroke="#ece8e1" stroke-width="2"/>
<circle cx="0" cy="0" r="3" fill="#111318"/></g>
<text x="52.0" y="344.0" fill="#ece8e1" font-size="12" font-family="IBM Plex Sans,sans-serif" font-weight="600">P.Seni</text>
<g transform="translate(36.0,364.0)"><!-- Hollow interchange ring. Pattern: TfL line-diagram standard (reference only), original geometry. -->
<circle cx="0" cy="0" r="5" fill="none" stroke="#ece8e1" stroke-width="2"/>
<circle cx="0" cy="0" r="3" fill="#111318"/></g>
<text x="52.0" y="368.0" fill="#ece8e1" font-size="12" font-family="IBM Plex Sans,sans-serif" font-weight="600">KL Sent.</text>
<line x1="31.0" y1="388.0" x2="41.0" y2="388.0" stroke="#ece8e1" stroke-width="2"/>
<text x="52.0" y="392.0" fill="#9a958c" font-size="12" font-family="IBM Plex Sans,sans-serif" font-weight="400">Bangsar</text>
<line x1="31.0" y1="412.0" x2="41.0" y2="412.0" stroke="#ece8e1" stroke-width="2"/>
<text x="52.0" y="416.0" fill="#9a958c" font-size="12" font-family="IBM Plex Sans,sans-serif" font-weight="400">A.Hukum</text>
<line x1="31.0" y1="436.0" x2="41.0" y2="436.0" stroke="#ece8e1" stroke-width="2"/>
<text x="52.0" y="440.0" fill="#9a958c" font-size="12" font-family="IBM Plex Sans,sans-serif" font-weight="400">Kerinchi</text>
<line x1="31.0" y1="460.0" x2="41.0" y2="460.0" stroke="#ece8e1" stroke-width="2"/>
<text x="52.0" y="464.0" fill="#9a958c" font-size="12" font-family="IBM Plex Sans,sans-serif" font-weight="400">Universiti</text>
<line x1="31.0" y1="484.0" x2="41.0" y2="484.0" stroke="#ece8e1" stroke-width="2"/>
<text x="52.0" y="488.0" fill="#9a958c" font-size="12" font-family="IBM Plex Sans,sans-serif" font-weight="400">T.Jaya</text>
<line x1="31.0" y1="508.0" x2="41.0" y2="508.0" stroke="#ece8e1" stroke-width="2"/>
<text x="52.0" y="512.0" fill="#9a958c" font-size="12" font-family="IBM Plex Sans,sans-serif" font-weight="400">Asia Jaya</text>
<line x1="31.0" y1="532.0" x2="41.0" y2="532.0" stroke="#ece8e1" stroke-width="2"/>
<text x="52.0" y="536.0" fill="#9a958c" font-size="12" font-family="IBM Plex Sans,sans-serif" font-weight="400">T.Paramount</text>
<line x1="31.0" y1="556.0" x2="41.0" y2="556.0" stroke="#ece8e1" stroke-width="2"/>
<text x="52.0" y="560.0" fill="#9a958c" font-size="12" font-family="IBM Plex Sans,sans-serif" font-weight="400">T.Bahagia</text>
<line x1="31.0" y1="580.0" x2="41.0" y2="580.0" stroke="#ece8e1" stroke-width="2"/>
<text x="52.0" y="584.0" fill="#9a958c" font-size="12" font-family="IBM Plex Sans,sans-serif" font-weight="400">K.Jaya</text>
<line x1="31.0" y1="604.0" x2="41.0" y2="604.0" stroke="#ece8e1" stroke-width="2"/>
<text x="52.0" y="608.0" fill="#9a958c" font-size="12" font-family="IBM Plex Sans,sans-serif" font-weight="400">L.Subang</text>
<line x1="31.0" y1="628.0" x2="41.0" y2="628.0" stroke="#ece8e1" stroke-width="2"/>
<text x="52.0" y="632.0" fill="#9a958c" font-size="12" font-family="IBM Plex Sans,sans-serif" font-weight="400">Ara Dam.</text>
<g transform="translate(36.0,652.0)"><!-- Hollow interchange ring. Pattern: TfL line-diagram standard (reference only), original geometry. -->
<circle cx="0" cy="0" r="5" fill="none" stroke="#ece8e1" stroke-width="2"/>
<circle cx="0" cy="0" r="3" fill="#111318"/></g>
<text x="52.0" y="656.0" fill="#ece8e1" font-size="12" font-family="IBM Plex Sans,sans-serif" font-weight="600">Glenmarie</text>
<line x1="31.0" y1="676.0" x2="41.0" y2="676.0" stroke="#ece8e1" stroke-width="2"/>
<text x="52.0" y="680.0" fill="#9a958c" font-size="12" font-family="IBM Plex Sans,sans-serif" font-weight="400">Subang J.</text>
<line x1="31.0" y1="700.0" x2="41.0" y2="700.0" stroke="#ece8e1" stroke-width="2"/>
<text x="52.0" y="704.0" fill="#9a958c" font-size="12" font-family="IBM Plex Sans,sans-serif" font-weight="400">SS15</text>
<line x1="31.0" y1="724.0" x2="41.0" y2="724.0" stroke="#ece8e1" stroke-width="2"/>
<text x="52.0" y="728.0" fill="#9a958c" font-size="12" font-family="IBM Plex Sans,sans-serif" font-weight="400">SS18</text>
<g transform="translate(36.0,748.0)"><!-- Hollow interchange ring. Pattern: TfL line-diagram standard (reference only), original geometry. -->
<circle cx="0" cy="0" r="5" fill="none" stroke="#ece8e1" stroke-width="2"/>
<circle cx="0" cy="0" r="3" fill="#111318"/></g>
<text x="52.0" y="752.0" fill="#ece8e1" font-size="12" font-family="IBM Plex Sans,sans-serif" font-weight="600">USJ 7</text>
<line x1="31.0" y1="772.0" x2="41.0" y2="772.0" stroke="#ece8e1" stroke-width="2"/>
<text x="52.0" y="776.0" fill="#9a958c" font-size="12" font-family="IBM Plex Sans,sans-serif" font-weight="400">Taipan</text>
<line x1="31.0" y1="796.0" x2="41.0" y2="796.0" stroke="#ece8e1" stroke-width="2"/>
<text x="52.0" y="800.0" fill="#9a958c" font-size="12" font-family="IBM Plex Sans,sans-serif" font-weight="400">Wawasan</text>
<line x1="31.0" y1="820.0" x2="41.0" y2="820.0" stroke="#ece8e1" stroke-width="2"/>
<text x="52.0" y="824.0" fill="#9a958c" font-size="12" font-family="IBM Plex Sans,sans-serif" font-weight="400">USJ 21</text>
<line x1="31.0" y1="844.0" x2="41.0" y2="844.0" stroke="#ece8e1" stroke-width="2"/>
<text x="52.0" y="848.0" fill="#9a958c" font-size="12" font-family="IBM Plex Sans,sans-serif" font-weight="400">A.Megah</text>
<line x1="31.0" y1="868.0" x2="41.0" y2="868.0" stroke="#ece8e1" stroke-width="2"/>
<text x="52.0" y="872.0" fill="#9a958c" font-size="12" font-family="IBM Plex Sans,sans-serif" font-weight="400">S.Alam</text>
<g transform="translate(36.0,892.0)"><!-- Terminal cap marker. Pattern: RapidKL linear diagram convention (reference only). -->
<rect x="-4" y="-4" width="8" height="8" rx="1" fill="#ece8e1"/></g>
<text x="52.0" y="896.0" fill="#ece8e1" font-size="12" font-family="IBM Plex Sans,sans-serif" font-weight="600">P.Heights</text>
<text x="120.0" y="16" fill="#6b6660" font-size="9" font-family="IBM Plex Sans,sans-serif" text-anchor="middle">37 stations · top to bottom</text>
</svg>
