<svg xmlns="http://www.w3.org/2000/svg" viewBox="0 0 240 536" role="img" aria-label="LRT Shah Alam Line schematic">
<title>LRT Shah Alam Line</title>
<rect width="240" height="536" fill="#111318"/>
<line x1="36.0" y1="28.0" x2="36.0" y2="508.0" stroke="#7b2d8e" stroke-width="6" stroke-linecap="butt"/>
<g transform="translate(36.0,28.0)"><!-- Terminal cap marker. Pattern: RapidKL linear diagram convention (reference only). -->
<rect x="-4" y="-4" width="8" height="8" rx="1" fill="#7b2d8e"/></g>
<text x="52.0" y="32.0" fill="#ece8e1" font-size="12" font-family="IBM Plex Sans,sans-serif" font-weight="600">B.Utama</text>
<line x1="31.0" y1="52.0" x2="41.0" y2="52.0" stroke="#ece8e1" stroke-width="2"/>
<text x="52.0" y="56.0" fill="#9a958c" font-size="12" font-family="IBM Plex Sans,sans-serif" font-weight="400">Kayu Ara</text>
<line x1="31.0" y1="76.0" x2="41.0" y2="76.0" stroke="#ece8e1" stroke-width="2"/>
<text x="52.0" y="80.0" fill="#9a958c" font-size="12" font-family="IBM Plex Sans,sans-serif" font-weight="400">BU11</text>
<line x1="31.0" y1="100.0" x2="41.0" y2="100.0" stroke="#ece8e1" stroke-width="2"/>
<text x="52.0" y="104.0" fill="#9a958c" font-size="12" font-family="IBM Plex Sans,sans-serif" font-weight="400">D.Idaman</text>
<line x1="31.0" y1="124.0" x2="41.0" y2="124.0" stroke="#ece8e1" stroke-width="2"/>
<text x="52.0" y="128.0" fill="#9a958c" font-size="12" font-family="IBM Plex Sans,sans-serif" font-weight="400">Subang</text>
<g transform="translate(36.0,148.0)"><!-- Hollow interchange ring. Pattern: TfL line-diagram standard (reference only), original geometry. -->
<circle cx="0" cy="0" r="5" fill="none" stroke="#ece8e1" stroke-width="2"/>
<circle cx="0" cy="0" r="3" fill="#111318"/></g>
<text x="52.0" y="152.0" fill="#ece8e1" font-size="12" font-family="IBM Plex Sans,sans-serif" font-weight="600">Glenmarie</text>
<line x1="31.0" y1="172.0" x2="41.0" y2="172.0" stroke="#ece8e1" stroke-width="2"/>
<text x="52.0" y="176.0" fill="#9a958c" font-size="12" font-family="IBM Plex Sans,sans-serif" font-weight="400">Kerjaya</text>
<line x1="31.0" y1="196.0" x2="41.0" y2="196.0" stroke="#ece8e1" stroke-width="2"/>
<text x="52.0" y="200.0" fill="#9a958c" font-size="12" font-family="IBM Plex Sans,sans-serif" font-weight="400">Stadium</text>
<line x1="31.0" y1="220.0" x2="41.0" y2="220.0" stroke="#ece8e1" stroke-width="2"/>
<text x="52.0" y="224.0" fill="#9a958c" font-size="12" font-family="IBM Plex Sans,sans-serif" font-weight="400">D.Menteri</text>
<line x1="31.0" y1="244.0" x2="41.0" y2="244.0" stroke="#ece8e1" stroke-width="2"/>
<text x="52.0" y="248.0" fill="#9a958c" font-size="12" font-family="IBM Plex Sans,sans-serif" font-weight="400">UiTM</text>
<line x1="31.0" y1="268.0" x2="41.0" y2="268.0" stroke="#ece8e1" stroke-width="2"/>
<text x="52.0" y="272.0" fill="#9a958c" font-size="12" font-family="IBM Plex Sans,sans-serif" font-weight="400">Sek. 7</text>
<line x1="31.0" y1="292.0" x2="41.0" y2="292.0" stroke="#ece8e1" stroke-width="2"/>
<text x="52.0" y="296.0" fill="#9a958c" font-size="12" font-family="IBM Plex Sans,sans-serif" font-weight="400">B.Raja S.</text>
<line x1="31.0" y1="316.0" x2="41.0" y2="316.0" stroke="#ece8e1" stroke-width="2"/>
<text x="52.0" y="320.0" fill="#9a958c" font-size="12" font-family="IBM Plex Sans,sans-serif" font-weight="400">BB Klang</text>
<line x1="31.0" y1="340.0" x2="41.0" y2="340.0" stroke="#ece8e1" stroke-width="2"/>
<text x="52.0" y="344.0" fill="#9a958c" font-size="12" font-family="IBM Plex Sans,sans-serif" font-weight="400">P.Klang</text>
<line x1="31.0" y1="364.0" x2="41.0" y2="364.0" stroke="#ece8e1" stroke-width="2"/>
<text x="52.0" y="368.0" fill="#9a958c" font-size="12" font-family="IBM Plex Sans,sans-serif" font-weight="400">J.Meru</text>
<g transform="translate(36.0,388.0)"><!-- Hollow interchange ring. Pattern: TfL line-diagram standard (reference only), original geometry. -->
<circle cx="0" cy="0" r="5" fill="none" stroke="#ece8e1" stroke-width="2"/>
<circle cx="0" cy="0" r="3" fill="#111318"/></g>
<text x="52.0" y="392.0" fill="#ece8e1" font-size="12" font-family="IBM Plex Sans,sans-serif" font-weight="600">J.Kota</text>
<line x1="31.0" y1="412.0" x2="41.0" y2="412.0" stroke="#ece8e1" stroke-width="2"/>
<text x="52.0" y="416.0" fill="#9a958c" font-size="12" font-family="IBM Plex Sans,sans-serif" font-weight="400">T.Selatan</text>
<line x1="31.0" y1="436.0" x2="41.0" y2="436.0" stroke="#ece8e1" stroke-width="2"/>
<text x="52.0" y="440.0" fill="#9a958c" font-size="12" font-family="IBM Plex Sans,sans-serif" font-weight="400">S.Andalas</text>
<line x1="31.0" y1="460.0" x2="41.0" y2="460.0" stroke="#ece8e1" stroke-width="2"/>
<text x="52.0" y="464.0" fill="#9a958c" font-size="12" font-family="IBM Plex Sans,sans-serif" font-weight="400">K.Jaya</text>
<line x1="31.0" y1="484.0" x2="41.0" y2="484.0" stroke="#ece8e1" stroke-width="2"/>
<text x="52.0" y="488.0" fill="#9a958c" font-size="12" font-family="IBM Plex Sans,sans-serif" font-weight="400">B.Tinggi</text>
<g transform="translate(36.0,508.0)"><!-- Terminal cap marker. Pattern: RapidKL linear diagram convention (reference only). -->
<rect x="-4" y="-4" width="8" height="8" rx="1" fill="#ece8e1"/></g>
<text x="52.0" y="512.0" fill="#ece8e1" font-size="12" font-family="IBM Plex Sans,sans-serif" font-weight="600">J.Setia</text>
<text x="120.0" y="16" fill="#6b6660" font-size="9" font-family="IBM Plex Sans,sans-serif" text-anchor="middle">21 stations · top to bottom</text>
</svg>
