<svg xmlns="http://www.w3.org/2000/svg" viewBox="0 0 64 64" role="img" aria-hidden="true">
  <rect x="8" y="22" width="48" height="24" rx="8" fill="#AFAFAF"/>
  <rect x="8" y="22" width="48" height="24" rx="8" stroke="#8A8A8A" stroke-width="2"/>
  <circle cx="20" cy="50" r="5" fill="#3C3C3C"/>
  <circle cx="44" cy="50" r="5" fill="#3C3C3C"/>
  <rect x="14" y="28" width="14" height="10" rx="3" fill="#EFEFEF"/>
  <rect x="30" y="28" width="14" height="10" rx="3" fill="#EFEFEF"/>
  <path d="M32 12c-6 0-10 4-10 8 0 2 1 4 3 5l-2 3h18l-2-3c2-1 3-3 3-5 0-4-4-8-10-8z" fill="#8A8A8A"/>
  <path d="M27 18h10" stroke="#fff" stroke-width="2" stroke-linecap="round"/>
</svg>
